<?xml version="1.0" standalone="no"?>
<!DOCTYPE svg PUBLIC "-//W3C//DTD SVG 20010904//EN"
 "http://www.w3.org/TR/2001/REC-SVG-20010904/DTD/svg10.dtd">
<svg version="1.0" xmlns="http://www.w3.org/2000/svg"
 width="1024.000000pt" height="1024.000000pt" viewBox="0 0 1024.000000 1024.000000"
 preserveAspectRatio="xMidYMid meet">
<metadata>
Created by potrace 1.16, written by Peter Selinger 2001-2019
</metadata>
<g transform="translate(0.000000,1024.000000) scale(0.100000,-0.100000)"
fill="#000000" stroke="none">
<path d="M4585 9604 c-22 -2 -89 -8 -150 -14 -166 -16 -328 -39 -348 -51 -10
-5 -22 -7 -27 -4 -6 4 -10 1 -10 -6 0 -7 -11 -10 -30 -7 -16 3 -30 1 -30 -4 0
-4 -10 -8 -23 -8 -25 0 -281 -64 -318 -79 -13 -6 -63 -22 -111 -36 -49 -15
-88 -30 -88 -34 0 -5 -10 -9 -22 -9 -20 0 -151 -54 -200 -82 -10 -6 -23 -10
-29 -10 -21 0 -209 -93 -209 -103 0 -6 -3 -7 -7 -4 -3 4 -11 2 -18 -3 -6 -5
-47 -28 -91 -51 -81 -42 -245 -138 -254 -149 -3 -3 -48 -34 -100 -70 -115 -77
-281 -211 -275 -221 3 -4 -3 -13 -13 -20 -15 -13 -16 -12 -3 4 30 38 -5 13
-89 -65 -49 -44 -87 -86 -83 -91 4 -6 1 -7 -6 -2 -8 5 -45 -27 -106 -91 -79
-82 -92 -101 -82 -114 10 -13 10 -13 -5 -2 -14 11 -22 6 -60 -44 -23 -31 -51
-64 -61 -73 -11 -9 -77 -93 -148 -188 -93 -123 -127 -176 -123 -190 4 -13 3
-14 -3 -5 -7 9 -20 -3 -46 -47 -21 -32 -37 -64 -37 -70 0 -5 -6 -14 -14 -18
-24 -14 -77 -119 -70 -139 4 -13 3 -15 -3 -6 -11 15 -47 -53 -37 -70 4 -6 3
-8 -3 -5 -12 8 -46 -61 -37 -75 4 -6 2 -8 -3 -5 -6 4 -16 -8 -23 -26 -25 -68
-30 -77 -39 -77 -5 0 -21 -33 -36 -72 -15 -40 -42 -111 -60 -158 -18 -47 -38
-103 -45 -125 -7 -22 -18 -53 -26 -70 -14 -31 -43 -134 -49 -172 -2 -12 -6
-27 -10 -32 -3 -6 -2 -11 4 -11 5 0 12 6 15 13 5 9 7 9 12 -1 5 -10 211 -12
1004 -12 923 0 999 2 993 17 -4 11 -3 14 5 9 8 -5 10 -2 6 8 -3 9 -13 16 -21
16 -8 0 -11 -4 -8 -10 3 -5 -1 -10 -10 -10 -9 0 -13 5 -10 10 3 6 -1 10 -9 10
-8 0 -18 5 -22 12 -4 7 -3 8 4 4 19 -11 14 9 -8 37 -11 14 -20 35 -20 48 0 22
0 22 15 3 8 -10 15 -26 15 -34 0 -8 9 -26 19 -39 14 -18 20 -21 26 -11 5 9 4
11 -3 6 -11 -6 -17 12 -13 37 0 4 -3 7 -9 7 -5 0 -10 4 -10 10 0 21 -108 229
-115 222 -5 -4 -5 -2 -1 5 6 12 -22 83 -34 83 -4 0 -7 6 -7 13 -2 28 -159 395
-167 390 -5 -4 -6 -1 -2 6 4 6 -3 25 -15 43 l-23 31 35 -7 c85 -17 267 -46
292 -46 20 0 27 5 27 20 0 10 6 34 14 52 8 18 22 50 31 71 9 21 14 44 12 51
-3 7 1 13 9 13 8 0 14 -4 14 -9 0 -4 13 -29 29 -55 20 -31 31 -43 35 -33 2 8
13 52 23 96 l19 81 -181 7 c-99 4 -331 16 -515 27 -184 10 -375 19 -425 19
-89 0 -139 12 -99 23 11 3 195 8 409 11 215 4 493 9 618 12 l229 6 11 32 c17
49 111 230 148 283 18 26 46 68 63 93 17 25 62 78 100 118 l69 73 -21 20 c-27
24 -27 25 -3 25 10 0 17 -6 14 -12 -2 -7 1 -15 7 -19 6 -4 39 20 74 53 89 83
261 199 391 265 258 129 463 182 760 194 223 9 441 -20 634 -84 115 -38 345
-155 439 -223 46 -33 88 -58 93 -54 5 3 8 0 7 -8 -2 -7 3 -12 10 -10 8 1 11
-2 8 -7 -3 -5 13 -24 37 -42 23 -18 85 -79 137 -135 52 -56 99 -99 104 -96 5
3 6 0 2 -6 -4 -6 26 -60 65 -119 70 -103 150 -258 164 -315 l7 -28 107 -1 c58
-1 224 -4 368 -8 255 -6 262 -5 273 14 7 14 9 15 6 3 -3 -10 -2 -18 2 -18 14
0 72 66 65 74 -4 4 0 4 10 0 9 -3 17 -2 17 3 0 13 101 84 171 119 31 16 56 33
57 37 0 5 4 12 8 15 4 4 4 1 0 -5 -9 -17 -11 -17 75 13 63 22 86 26 155 21 67
-4 86 -1 115 15 18 11 26 17 16 14 -14 -5 -17 -2 -13 12 4 12 -17 41 -67 95
-40 42 -70 77 -67 77 3 0 -12 16 -33 35 -24 21 -44 32 -55 29 -14 -5 -15 -4
-2 4 11 9 1 24 -59 82 -71 69 -90 78 -99 50 -3 -9 1 -11 14 -6 15 6 16 5 7 -5
-10 -10 -15 -9 -28 1 -14 11 -13 14 2 25 10 8 14 17 9 22 -5 4 -11 2 -13 -4
-3 -7 -9 -13 -15 -13 -7 0 -7 5 1 14 9 10 5 19 -15 39 -15 15 -31 24 -37 20
-5 -3 -7 -1 -4 4 8 13 -14 32 -43 38 -13 2 -25 7 -29 11 -3 4 3 4 13 0 16 -6
17 -4 6 9 -8 9 -27 23 -44 32 -16 9 -53 37 -80 64 -28 27 -56 49 -63 49 -7 0
-13 5 -13 10 0 6 -5 10 -10 10 -6 0 -50 28 -98 63 -94 67 -176 118 -189 116
-20 -3 -34 2 -28 11 3 5 -32 28 -77 51 -46 23 -85 45 -86 50 -2 5 -8 7 -13 3
-5 -3 -9 -1 -9 5 0 9 -26 21 -44 20 -5 0 -12 4 -15 10 -6 10 -174 90 -189 90
-4 0 -29 10 -57 22 -27 12 -66 29 -85 37 -19 9 -43 15 -52 14 -10 0 -18 3 -18
8 0 5 -19 15 -42 21 -24 7 -47 16 -53 20 -5 3 -26 10 -45 15 -46 10 -46 10
-110 32 -30 10 -107 31 -170 47 -63 15 -124 31 -135 36 -31 12 -186 37 -340
55 -131 14 -609 27 -700 18z"/>
<path d="M4194 8650 c-202 -20 -369 -66 -486 -137 -72 -43 -104 -81 -85 -100
18 -18 127 -39 272 -53 66 -7 122 -14 125 -16 2 -3 -1 -14 -8 -25 -12 -18 -11
-21 7 -26 30 -8 26 -26 -9 -46 -16 -10 -30 -23 -30 -28 0 -5 -10 -23 -21 -39
-26 -35 -23 -64 22 -203 l31 -95 -25 -44 c-43 -74 -95 -230 -122 -363 -14 -70
-35 -145 -46 -166 -22 -44 -24 -71 -7 -98 9 -15 2 -45 -44 -167 -31 -82 -64
-182 -74 -223 l-17 -74 87 -81 c61 -57 87 -88 86 -104 0 -28 -48 -102 -66
-102 -17 0 -47 41 -118 163 l-58 97 -68 -4 c-50 -3 -82 -11 -116 -30 -26 -14
-48 -25 -49 -24 -2 2 -30 57 -63 123 l-61 120 6 134 c6 142 -4 167 -26 66 -15
-68 -31 -71 -32 -7 -1 26 -4 92 -8 147 l-6 100 -15 -58 -15 -58 -39 140 c-22
78 -41 139 -43 137 -7 -7 -33 -159 -33 -194 0 -50 -13 -32 -45 63 -15 44 -30
87 -33 95 -8 22 -19 -34 -21 -100 l-1 -54 -38 37 c-47 46 -72 49 -38 5 22 -31
45 -77 67 -138 l9 -25 -18 25 c-38 55 -99 114 -147 141 -63 36 -72 36 -47 1
26 -36 122 -212 116 -212 -3 0 -19 7 -35 16 -58 29 -52 8 14 -51 72 -63 85
-85 37 -60 -49 25 -34 1 43 -70 39 -37 63 -64 52 -60 -11 4 -31 10 -45 12 -24
4 -23 3 9 -26 19 -17 62 -42 96 -56 33 -15 67 -36 75 -48 8 -12 42 -71 76
-132 l63 -109 -59 -62 c-71 -73 -80 -102 -53 -152 11 -21 18 -43 16 -50 -3 -7
4 -23 15 -35 18 -21 100 -164 206 -360 26 -48 46 -94 44 -102 -2 -7 -73 -87
-159 -177 -85 -90 -184 -194 -220 -233 -145 -158 -155 -167 -187 -173 l-32 -7
24 -51 c28 -59 108 -141 171 -175 25 -13 45 -28 45 -34 0 -17 -163 -170 -225
-211 -33 -22 -103 -65 -155 -94 -325 -183 -537 -318 -678 -432 -336 -274 -643
-697 -834 -1148 -48 -112 -123 -357 -137 -445 -6 -38 -14 -81 -17 -95 -9 -32
0 -23 61 65 155 224 354 407 541 497 99 48 145 56 179 34 58 -38 67 -97 49
-332 -28 -372 46 -690 241 -1035 152 -269 457 -611 769 -861 56 -45 109 -88
119 -96 35 -31 18 16 -36 95 -66 97 -184 304 -232 409 -161 346 -234 706 -207
1021 6 61 13 116 16 122 4 6 39 -16 84 -52 159 -128 380 -266 404 -251 6 4 8
3 4 -4 -3 -6 12 -17 39 -28 25 -9 45 -21 45 -25 0 -5 5 -9 11 -9 5 0 47 -18
93 -41 46 -22 90 -41 99 -43 9 -1 20 -5 23 -9 4 -4 12 -7 18 -7 6 0 4 5 -4 11
-12 9 -12 10 3 5 10 -3 20 -6 23 -6 2 0 1 -7 -3 -17 -5 -13 -2 -15 15 -11 33
9 27 -6 -26 -65 -99 -109 -212 -296 -212 -352 0 -11 -9 -38 -19 -60 -46 -103
-51 -249 -11 -376 39 -127 70 -128 70 -4 1 318 123 604 327 766 41 32 105 77
144 99 l70 41 84 -79 c46 -44 107 -95 135 -113 27 -18 50 -34 50 -35 0 -9 -31
-118 -48 -164 -10 -30 -22 -72 -25 -93 -6 -36 -2 -43 41 -90 76 -83 83 -88
120 -81 19 3 47 2 64 -1 26 -6 28 -9 15 -23 -26 -30 -47 -93 -47 -144 l0 -49
35 7 c30 5 35 3 39 -17 13 -63 18 -113 21 -214 2 -60 6 -157 9 -215 9 -137 -5
-167 -107 -244 -106 -80 -126 -101 -133 -146 -5 -29 -11 -40 -24 -40 -10 0
-25 -3 -33 -6 -23 -8 -44 21 -52 72 -4 32 -9 43 -15 34 -11 -17 -20 5 -56 133
-35 129 -35 127 -43 127 -16 0 -43 -79 -39 -114 l4 -36 -26 23 c-14 13 -33 22
-42 20 -23 -6 -23 -3 14 -62 17 -28 29 -54 26 -56 -3 -3 -51 40 -107 95 -56
55 -104 100 -107 100 -2 0 -4 -12 -4 -27 0 -28 34 -86 118 -201 29 -39 51 -72
48 -72 -2 0 -24 11 -47 25 -24 14 -47 25 -51 25 -3 0 -14 -14 -22 -31 -15 -29
-14 -33 0 -44 14 -10 5 -14 -52 -25 -88 -17 -288 -26 -857 -38 -457 -9 -531
-16 -441 -41 50 -14 191 -19 794 -31 988 -20 1057 -35 192 -43 -310 -3 -566
-8 -570 -11 -10 -11 2 -14 87 -26 106 -14 327 -25 946 -46 400 -13 690 -15
1575 -10 597 3 1164 10 1260 15 96 6 339 15 540 20 485 13 690 23 690 31 0 13
-183 20 -730 25 -300 3 -624 9 -720 12 l-175 7 130 7 c72 4 357 12 635 18 278
6 576 13 663 17 l157 6 -37 21 c-36 19 -56 21 -338 23 -165 1 -433 10 -595 20
-162 10 -317 19 -343 19 l-48 0 28 22 28 23 -59 0 c-40 0 -65 5 -77 16 -16 14
-21 14 -63 -11 -25 -15 -46 -22 -46 -17 0 25 83 112 151 158 141 97 292 159
449 183 41 7 86 14 100 18 l25 5 -24 9 c-25 10 -336 15 -361 6 -8 -3 -33 -8
-55 -12 -29 -5 -50 -18 -77 -47 -33 -35 -44 -41 -97 -47 -45 -5 -72 -16 -106
-40 -25 -18 -45 -30 -45 -27 0 3 8 27 19 53 10 26 22 72 26 100 4 29 16 64 27
78 29 38 107 241 101 265 -3 11 -9 20 -13 20 -21 0 -207 -328 -245 -433 -10
-26 -19 -46 -21 -44 -5 4 42 220 60 281 9 30 13 66 9 92 -4 35 -2 43 12 46 13
2 28 36 56 122 22 66 39 123 39 127 0 5 -9 13 -20 19 -17 9 -23 5 -44 -27 -14
-21 -28 -60 -32 -88 -3 -27 -10 -54 -14 -60 -5 -5 -10 -23 -12 -40 -2 -22 -9
-31 -28 -35 -33 -7 -52 -49 -90 -194 -20 -83 -30 -144 -30 -197 0 -56 -4 -80
-15 -89 -8 -7 -15 -18 -15 -26 0 -14 -39 -6 -81 17 -13 7 -26 14 -29 15 -26 6
-42 23 -61 61 -19 40 -21 54 -15 126 10 110 36 449 36 464 0 8 12 10 35 6 32
-5 35 -4 35 20 0 45 -23 131 -42 159 l-19 27 26 7 c14 3 45 3 69 0 44 -7 44
-7 100 56 54 60 56 65 56 118 0 34 -8 72 -21 100 -11 25 -24 63 -29 85 -5 22
-11 49 -15 60 -6 19 -2 20 46 16 79 -5 253 16 359 44 204 54 485 226 748 458
52 45 99 82 105 82 7 0 27 -37 45 -83 74 -185 114 -465 95 -663 -5 -57 -7
-110 -3 -117 8 -17 85 124 137 253 97 236 133 412 142 685 4 122 11 213 18
225 25 45 52 59 108 59 44 -1 70 -10 152 -54 223 -118 534 -344 768 -556 61
-55 118 -103 128 -107 9 -3 17 -13 17 -20 0 -8 7 -21 16 -28 15 -12 16 -11 9
11 -68 226 -305 633 -528 910 -96 119 -381 398 -512 502 -191 151 -423 309
-569 387 -66 35 -87 32 -41 -5 17 -14 29 -29 28 -34 -2 -5 3 -7 10 -5 16 6 81
-51 73 -64 -4 -5 -13 -8 -21 -4 -8 3 -15 0 -15 -6 0 -6 7 -11 16 -11 9 0 12
-5 8 -12 -5 -9 -3 -9 9 1 9 7 14 17 11 22 -13 21 13 4 128 -83 424 -325 689
-583 803 -783 28 -48 25 -47 -76 51 -314 306 -678 565 -1076 768 -233 118
-309 180 -465 376 -136 172 -359 507 -433 650 -22 43 -12 37 21 -12 96 -142
148 -208 158 -198 8 8 8 13 0 18 -15 10 -41 56 -135 237 -142 274 -193 379
-191 398 0 10 -4 15 -10 11 -7 -5 -9 -1 -5 9 3 10 2 17 -4 17 -6 0 -7 4 -4 10
3 6 2 10 -3 10 -5 0 -12 10 -15 23 -6 22 -6 22 9 2 35 -47 85 -146 78 -157 -4
-7 -3 -8 4 -4 12 7 38 -32 33 -53 -1 -7 2 -11 6 -8 16 10 199 -304 186 -317
-4 -3 -1 -6 5 -6 20 0 15 14 -59 176 -48 104 -68 159 -61 166 6 6 12 6 16 -1
4 -6 2 -11 -4 -11 -6 0 -8 -5 -5 -10 4 -6 10 -8 15 -5 4 3 6 -5 2 -17 -3 -13
-1 -19 5 -15 14 9 24 -18 16 -40 -3 -10 -3 -15 2 -11 4 4 22 -20 39 -52 51
-97 107 -191 147 -249 21 -29 36 -58 33 -63 -3 -4 -1 -7 4 -6 5 2 33 -26 62
-62 132 -161 505 -498 655 -592 23 -14 86 -42 140 -63 267 -99 516 -254 727
-454 38 -35 68 -61 68 -57 0 9 -37 137 -45 159 -4 9 -4 17 0 17 26 0 218 -180
319 -300 21 -25 35 -38 32 -30 -5 17 -35 113 -70 232 -13 43 -20 75 -15 72 19
-11 161 -237 196 -310 20 -43 38 -73 40 -68 5 16 -45 182 -79 259 -43 98 -112
220 -161 285 -51 68 -171 189 -255 258 -67 55 -65 64 7 32 100 -46 39 7 -75
64 -97 48 -194 79 -368 116 -236 50 -394 112 -490 193 l-48 40 23 -43 c13 -24
67 -88 120 -142 53 -54 94 -98 90 -98 -11 0 -65 17 -121 39 l-55 21 35 -29
c19 -17 71 -51 115 -77 44 -26 105 -63 135 -81 l54 -33 -67 0 c-40 0 -86 7
-115 18 -100 38 -256 163 -427 342 -151 158 -140 139 -113 194 19 39 26 46 45
42 12 -4 77 -15 144 -27 67 -11 170 -33 228 -50 123 -34 257 -61 245 -49 -5 5
-67 35 -139 67 -96 44 -399 206 -422 227 -2 1 3 17 10 35 11 31 14 32 52 27
22 -3 108 -11 190 -16 83 -6 194 -20 247 -30 249 -51 578 -169 736 -265 59
-36 52 -17 -15 46 -188 172 -447 333 -762 474 -57 25 -117 49 -133 52 -44 9
-23 17 139 58 l138 35 -140 -5 c-77 -3 -185 -12 -239 -20 -55 -8 -102 -15
-106 -15 -3 0 -12 47 -19 104 l-14 105 27 46 c15 25 47 68 72 96 l44 50 -2
119 c-2 106 0 122 17 144 100 123 106 134 112 191 l6 57 24 -31 c19 -24 32
-31 60 -31 21 0 45 8 56 18 19 16 19 16 13 -4 -5 -17 5 -27 60 -62 73 -47 71
-50 31 57 -23 62 -82 132 -132 156 -31 14 -35 21 -35 53 0 40 -47 406 -79 620
-80 533 5 898 261 1112 128 107 296 188 337 163 20 -13 24 -11 71 40 42 46 33
57 -47 57 -29 0 -53 2 -53 5 0 3 15 19 33 35 l32 31 -40 -18 c-22 -10 -67 -34
-100 -54 -33 -20 -91 -53 -129 -73 -197 -106 -330 -260 -436 -505 -22 -51 -47
-102 -56 -114 -9 -12 -59 -92 -112 -179 -53 -86 -146 -232 -206 -325 -144
-222 -234 -361 -411 -638 -81 -126 -155 -238 -164 -248 -16 -16 -19 -14 -56
35 -21 29 -50 65 -63 80 -19 21 -22 28 -11 32 8 2 32 10 54 17 22 6 62 23 90
37 l49 24 -59 28 c-66 30 -149 90 -180 129 -11 14 -32 39 -47 54 -18 18 -28
39 -28 58 0 19 -12 42 -35 68 -19 21 -35 42 -35 47 0 5 14 18 30 29 29 19 100
115 100 135 0 5 -17 39 -37 76 l-36 67 54 -35 c122 -77 233 -108 395 -108 84
0 128 5 178 20 78 25 93 40 28 29 -26 -4 -60 -8 -77 -8 l-30 0 30 14 30 14
-35 -6 c-19 -2 -40 -6 -46 -8 -20 -6 -152 24 -196 44 l-43 20 58 -6 c31 -3 57
-3 57 0 0 3 -24 13 -52 22 -29 10 -57 21 -61 25 -4 4 32 10 80 13 160 12 430
100 475 155 11 14 10 15 -7 8 -42 -15 -193 -28 -269 -22 -79 6 -172 40 -221
80 -19 17 -19 17 15 11 19 -3 89 -7 155 -10 l120 -5 -73 20 c-183 49 -342 138
-402 225 -17 25 -27 45 -23 45 4 0 33 -9 63 -21 30 -12 115 -36 188 -55 125
-31 179 -56 209 -94 10 -12 12 -13 13 -1 0 26 -93 105 -195 166 -185 110 -270
168 -325 224 -52 52 -57 63 -83 156 -38 136 -120 303 -195 396 -123 152 -293
293 -433 358 -202 93 -362 122 -699 126 -135 2 -286 0 -336 -5z m656 -79 c136
-24 286 -69 382 -116 133 -65 325 -231 400 -347 49 -75 101 -199 90 -210 -10
-10 -51 35 -53 57 -1 6 -10 21 -20 34 -20 25 -25 46 -9 36 20 -12 9 23 -19 62
-45 62 -180 196 -234 231 -53 35 -75 42 -39 13 13 -12 20 -25 16 -35 -7 -18
-24 -22 -24 -6 0 6 5 10 12 10 6 0 4 6 -6 13 -9 7 -18 21 -20 32 -7 48 -263
155 -366 153 -25 0 -28 -2 -10 -5 65 -10 75 -14 59 -24 -10 -8 -6 -9 16 -5
l30 5 -30 -14 c-24 -11 -26 -14 -10 -15 11 0 29 -7 39 -15 25 -19 19 -19 -34
0 -45 16 -142 19 -175 6 -16 -7 -9 -10 30 -15 116 -16 301 -79 288 -99 -3 -6
-1 -7 6 -3 10 7 98 -36 111 -54 3 -4 15 -10 28 -14 38 -12 24 9 -24 36 -35 19
-42 27 -29 31 9 4 14 3 10 -3 -3 -6 1 -10 9 -10 23 0 28 18 9 29 -10 6 -13 10
-8 11 6 0 16 -4 24 -9 12 -8 12 -12 2 -24 -8 -10 -9 -17 -1 -22 5 -3 10 0 11
7 0 9 2 10 5 1 3 -7 21 -17 41 -24 27 -9 37 -8 46 1 9 10 7 12 -10 7 -15 -3
-20 -1 -16 9 7 18 8 18 36 -8 14 -13 43 -40 66 -61 23 -21 41 -43 41 -50 0 -7
-4 -6 -10 3 -5 8 -10 11 -10 6 0 -5 -7 -2 -17 5 -15 13 -15 12 -4 -9 11 -22
11 -22 -8 -10 -17 11 -23 10 -38 -5 -16 -16 -16 -17 1 -17 22 0 86 -46 86 -61
0 -6 -10 -3 -22 5 -32 23 -42 21 -157 -34 -283 -136 -576 -404 -887 -808 -152
-199 -207 -321 -208 -462 0 -88 18 -129 86 -200 24 -26 42 -53 40 -63 -2 -9 1
-17 7 -17 6 0 11 -5 11 -11 0 -14 -71 38 -129 94 -57 55 -71 90 -71 180 0 97
12 159 51 257 31 78 41 91 54 70 3 -5 2 -10 -3 -10 -24 0 -89 -173 -79 -212 3
-10 1 -21 -4 -24 -5 -3 -8 -15 -8 -27 1 -20 2 -21 7 -2 l5 20 9 -20 c6 -16 7
-14 3 8 -3 15 -1 27 5 27 5 0 10 7 10 16 0 27 42 158 54 169 15 14 66 115 57
115 -3 0 -12 -9 -19 -20 -11 -18 -42 -29 -42 -15 0 3 14 33 31 66 17 34 28 63
26 66 -3 2 -30 -26 -61 -63 -60 -72 -126 -183 -165 -274 -27 -65 -35 -76 -25
-36 4 19 3 27 -3 23 -26 -16 -33 289 -8 349 8 19 41 71 74 114 32 43 74 104
92 134 20 32 40 55 48 53 9 -1 17 10 21 29 4 17 21 49 39 71 35 44 50 105 31
127 -6 9 -8 21 -4 27 4 7 3 9 -4 5 -6 -3 -13 -2 -16 3 -7 11 47 31 85 31 16 0
29 5 29 10 0 6 -7 10 -15 10 -25 0 -76 30 -70 40 4 6 -1 10 -10 10 -9 0 -13 4
-10 10 3 6 -1 7 -9 4 -9 -3 -16 -1 -16 4 0 6 -23 35 -50 64 -56 59 -67 86 -50
118 8 15 8 30 2 49 -11 30 8 68 27 56 6 -3 11 -1 11 5 0 6 35 27 77 47 l77 35
-33 14 c-18 8 -44 14 -57 14 -13 0 -64 16 -112 35 -79 32 -171 59 -334 95 -32
7 -58 17 -58 21 0 4 -10 5 -22 2 -50 -13 -6 9 73 36 185 63 344 82 639 76 135
-3 230 -10 310 -24z m-716 -690 c17 -10 42 -22 56 -26 45 -13 128 -56 146 -76
17 -19 17 -20 -7 -37 -13 -9 -28 -16 -32 -14 -5 1 -6 -2 -2 -8 9 -14 -14 -42
-28 -33 -6 3 -7 1 -3 -5 7 -12 -31 -86 -92 -182 -26 -39 -37 -50 -40 -37 -2 9
-8 17 -13 17 -6 0 -7 -4 -4 -10 3 -6 -1 -7 -9 -4 -28 11 -17 26 14 22 17 -3
30 -3 30 -2 0 1 3 9 6 18 4 10 1 16 -8 16 -8 0 -25 11 -38 25 -20 21 -21 27
-10 38 7 6 10 7 7 1 -3 -6 3 -18 14 -27 16 -14 22 -15 33 -5 7 7 11 18 9 25
-3 7 3 10 14 7 14 -3 25 12 51 66 18 38 40 76 47 84 13 13 11 17 -18 34 -17
11 -45 24 -60 28 -16 3 -31 14 -35 23 -16 44 -52 53 -74 19 -14 -21 -15 -21
-20 -2 -6 25 8 64 23 64 6 0 26 -8 43 -19z m1618 -415 c5 4 13 2 17 -3 21 -31
222 -198 262 -219 27 -13 49 -26 49 -29 0 -8 -105 27 -150 50 -124 63 -205
150 -224 240 -6 28 -5 28 14 -8 12 -21 25 -35 32 -31z m-390 -172 c2 -64 13
-84 23 -41 4 12 1 35 -4 51 -16 41 -14 46 17 40 16 -3 45 1 66 10 21 9 40 16
41 16 11 0 12 -96 2 -146 -16 -73 -50 -134 -119 -210 -81 -88 -144 -134 -184
-134 -51 0 -221 57 -286 96 -58 36 -112 89 -103 104 3 4 -2 10 -10 14 -8 3
-15 11 -15 17 0 8 6 7 18 -3 9 -9 55 -34 102 -57 l85 -41 -37 34 c-21 18 -38
36 -38 41 0 4 41 4 90 0 98 -8 119 3 45 23 -35 9 -62 28 -117 83 -39 39 -66
74 -62 78 13 11 72 27 209 55 66 14 152 36 190 49 69 24 70 24 78 5 4 -11 8
-49 9 -84z m1637 -95 c-14 -121 -5 -382 21 -609 35 -298 40 -352 40 -447 l0
-92 -32 -9 c-35 -9 -39 -22 -23 -87 11 -48 -45 -122 -122 -160 l-60 -30 -7
-60 c-10 -85 -41 -207 -65 -254 -12 -22 -45 -66 -74 -97 l-53 -57 -31 54 c-59
104 -158 225 -315 387 -111 113 -157 166 -151 175 13 22 140 219 238 368 50
76 131 201 180 279 50 77 135 209 189 293 135 207 266 424 266 438 0 7 2 10 5
8 2 -3 0 -48 -6 -100z m-3775 -374 c30 -49 66 -114 81 -144 26 -52 26 -55 9
-68 -10 -7 -23 -12 -28 -10 -6 2 -41 55 -78 118 -63 106 -67 118 -67 174 0 71
1 71 83 -70z m1246 -229 c41 -27 129 -91 196 -141 136 -103 308 -207 371 -226
39 -11 46 -10 116 24 57 26 78 32 87 24 8 -9 10 -8 5 6 -5 12 -2 17 10 17 9 0
14 3 12 8 -8 13 91 84 99 71 4 -7 3 -10 -2 -7 -5 2 -19 -6 -31 -19 -12 -13
-19 -23 -16 -23 4 0 -1 -6 -12 -13 -10 -8 -15 -19 -12 -25 4 -5 -14 -24 -40
-42 -44 -28 -45 -31 -18 -26 17 4 23 3 15 0 -8 -4 -45 -19 -82 -35 -36 -16
-78 -29 -92 -29 -14 0 -26 -4 -26 -9 0 -12 -89 -31 -146 -31 -48 0 -208 60
-296 111 -25 15 -50 24 -54 21 -4 -4 -4 2 0 12 5 16 4 17 -8 6 -12 -10 -21 -8
-45 9 -16 12 -34 21 -40 21 -6 0 -11 5 -11 10 0 7 6 7 19 0 11 -5 25 -10 33
-10 19 0 -23 27 -78 49 -27 11 -43 20 -36 20 7 1 38 -10 70 -23 31 -13 86 -34
122 -46 36 -12 118 -45 183 -72 136 -57 199 -76 245 -75 39 0 45 27 6 27 -19
0 -25 4 -20 15 3 8 1 15 -5 15 -5 0 -12 -7 -15 -15 -8 -19 -15 -19 -40 0 -18
14 -17 15 11 8 28 -6 29 -5 16 11 -19 22 -66 47 -83 43 -7 -2 -9 -2 -5 1 5 2
-28 26 -72 53 -107 64 -180 119 -261 195 -76 72 -117 106 -124 102 -2 -2 -15
10 -27 27 -26 33 -24 31 81 -39z m1114 42 c-5 -7 -2 -9 9 -5 11 4 14 2 10 -9
-3 -7 -10 -14 -16 -14 -8 0 -8 -3 -1 -10 11 -11 60 4 115 35 14 8 29 11 33 8
4 -4 -4 -13 -16 -20 -13 -7 -17 -12 -10 -13 7 0 22 5 33 10 10 6 19 7 19 2 0
-5 -37 -23 -82 -42 -94 -38 -119 -54 -201 -123 -31 -27 -54 -42 -51 -33 3 9 2
16 -3 16 -16 0 -44 -36 -36 -45 5 -4 2 -5 -4 -1 -9 5 4 26 40 69 29 34 68 84
85 110 35 50 44 58 37 30 -3 -10 2 -3 10 15 8 17 20 32 26 32 5 0 7 -5 3 -12z
m-1374 -283 c224 -141 422 -255 443 -255 6 0 1 8 -10 18 -90 77 -162 146 -158
150 3 3 13 -2 24 -12 10 -9 27 -18 39 -21 29 -5 144 -70 242 -136 91 -62 188
-113 233 -124 15 -4 27 -11 27 -15 0 -5 15 -4 33 0 56 15 132 29 135 25 2 -2
-16 -9 -40 -15 -23 -6 -66 -18 -94 -26 -67 -19 -100 -11 -209 46 -102 53 -159
74 -330 121 -66 17 -154 47 -195 64 -41 18 -85 36 -97 39 -11 4 -24 14 -27 23
-5 12 -3 13 6 6 7 -6 33 -14 58 -18 l45 -7 -60 40 c-60 41 -178 153 -160 151
6 0 48 -24 95 -54z m-33 -296 c20 -17 18 -182 -2 -199 -8 -7 -15 -20 -15 -29
0 -25 -64 -218 -95 -286 -50 -110 -55 -125 -46 -125 5 0 13 9 16 21 4 11 9 18
12 15 12 -12 -154 -308 -202 -358 -30 -33 -31 -38 -6 -38 11 0 28 12 39 27
l20 28 -5 -26 c-2 -14 -26 -68 -53 -120 -34 -66 -54 -95 -68 -97 -43 -7 -424
106 -617 183 -87 34 -215 105 -215 119 0 12 37 59 155 196 235 274 558 605
582 596 8 -3 12 -2 8 3 -5 10 16 27 93 75 23 14 42 22 42 16 0 -5 -18 -19 -40
-30 -22 -11 -40 -23 -40 -25 0 -3 18 4 40 15 47 24 50 24 50 5 0 -8 5 -15 10
-15 6 0 10 5 10 10 0 6 5 10 10 10 12 0 -11 -60 -39 -99 -11 -16 -18 -31 -14
-35 3 -3 13 3 20 14 8 11 19 18 24 15 5 -3 6 0 3 8 -2 7 4 25 16 38 l20 24
-10 -29 c-12 -32 -4 -48 11 -26 8 11 8 3 4 -25 -4 -22 -9 -56 -10 -75 -1 -19
-5 -73 -9 -120 -7 -96 -11 -100 62 65 24 55 69 148 99 207 l55 108 35 -15 c20
-9 42 -20 50 -26z m1703 -54 c0 -8 9 -15 20 -15 14 0 18 4 13 18 -4 9 49 -46
117 -123 69 -77 146 -162 172 -190 26 -27 48 -56 48 -63 0 -7 4 -11 8 -8 5 3
33 -20 63 -52 30 -31 45 -49 33 -39 -11 9 -23 15 -26 11 -3 -3 -15 6 -25 20
-15 19 -23 22 -32 13 -12 -12 -15 -30 -3 -24 9 5 42 -30 35 -37 -6 -6 13 -10
30 -7 5 1 6 -3 2 -9 -3 -5 -4 -10 -1 -10 2 0 12 -3 22 -7 11 -4 15 -3 10 5 -3
6 -2 13 3 16 5 3 11 0 14 -8 3 -8 -1 -17 -9 -20 -21 -8 -97 32 -88 46 5 7 3 8
-6 3 -7 -4 -15 -3 -19 2 -9 13 -110 83 -119 83 -5 0 -19 9 -32 20 -34 30 -45
24 -15 -7 15 -16 63 -83 107 -150 45 -68 86 -123 92 -122 6 0 33 27 61 60 27
32 52 59 56 59 3 0 19 -20 37 -45 17 -25 29 -45 25 -45 -3 0 -11 7 -17 16 -10
13 -17 11 -56 -15 -25 -17 -45 -36 -45 -42 0 -7 -7 -14 -15 -16 -13 -4 -13 -3
-1 5 11 8 8 10 -12 9 -24 -2 -24 -3 -10 -19 9 -10 21 -15 27 -11 6 3 8 3 4 -2
-9 -10 9 -45 24 -45 7 0 6 5 -2 15 -10 12 -9 15 4 16 9 1 21 2 27 3 7 0 15 10
20 21 5 13 8 15 9 5 0 -10 11 -3 31 18 17 19 33 31 36 28 4 -3 -4 -18 -18 -32
-32 -34 -180 -134 -199 -134 -8 0 -23 20 -33 44 -28 68 -107 187 -120 179 -6
-4 -8 0 -4 10 7 18 -11 67 -24 67 -4 0 -9 10 -12 23 -4 12 -13 31 -22 42 l-15
20 7 -20 c3 -11 10 -25 15 -32 6 -7 7 -17 3 -23 -3 -5 -1 -10 4 -10 6 0 10
-10 8 -22 -1 -17 3 -23 16 -22 23 2 22 -8 -4 -37 l-22 -24 6 25 c5 22 5 23 -7
8 -7 -10 -17 -14 -22 -10 -4 4 -3 0 4 -9 7 -9 10 -23 6 -32 -12 -33 17 -25 35
10 11 21 20 32 21 25 0 -7 4 -11 9 -7 12 7 34 -32 26 -45 -3 -6 -16 -10 -28
-10 -26 0 -43 -11 -42 -25 2 -15 37 -73 63 -106 16 -19 18 -27 9 -23 -9 3 -31
31 -49 62 -46 77 -160 341 -153 353 4 5 2 9 -3 9 -10 0 -43 94 -80 225 -28 98
-31 125 -19 152 12 26 27 31 27 8z m-147 -225 c14 -30 16 -31 12 -8 -6 31 3
60 16 52 5 -3 9 -10 9 -15 0 -6 -4 -7 -10 -4 -13 8 -13 -5 0 -25 9 -13 10 -13
10 0 1 27 27 -17 115 -195 46 -93 84 -180 83 -192 -2 -24 -5 -23 -22 6 -45 82
-98 160 -111 164 -12 5 -13 3 -2 -16 6 -12 15 -24 18 -27 5 -5 22 -41 112
-230 83 -176 107 -230 107 -239 0 -5 7 -21 14 -37 16 -30 13 -44 -10 -44 -14
0 -18 12 -15 39 2 7 -2 10 -8 6 -6 -3 -11 -1 -11 4 0 6 -13 38 -29 71 -16 33
-26 60 -21 60 5 0 10 -5 12 -12 3 -9 6 -9 12 0 4 7 -2 14 -16 17 -23 6 -59 73
-74 138 -3 15 -9 27 -14 27 -12 0 -141 280 -172 374 -19 58 -31 118 -33 166
-3 73 -3 73 4 15 4 -33 15 -76 24 -95z m-1329 78 c13 -29 27 -69 32 -88 10
-45 9 -40 23 -75 24 -59 121 -352 121 -367 0 -8 6 -15 14 -15 10 0 12 6 6 21
-4 12 -11 50 -15 86 -4 36 -18 109 -31 164 -14 54 -29 122 -35 150 -5 28 -12
60 -14 71 l-5 20 9 -20 c5 -11 12 -29 16 -40 4 -14 8 -16 14 -7 5 9 12 -3 21
-35 7 -26 20 -75 30 -108 9 -33 23 -91 29 -130 7 -38 21 -107 32 -153 19 -82
19 -83 1 -107 -38 -48 -83 -97 -87 -94 -20 22 -147 277 -175 352 -26 70 -47
66 -30 -5 7 -25 10 -54 7 -64 -2 -11 -7 5 -12 33 -4 29 -11 50 -15 48 -4 -3
-4 -22 1 -42 5 -21 9 -81 9 -133 1 -63 4 -88 10 -75 5 11 6 48 3 83 -4 46 -3
62 7 62 7 0 10 -7 7 -15 -4 -8 -2 -17 2 -20 5 -2 11 -13 14 -24 3 -14 1 -18
-10 -14 -13 5 -13 2 -4 -15 6 -11 11 -32 11 -46 0 -14 5 -26 10 -26 13 0 13
-102 0 -171 -10 -50 -67 -185 -75 -177 -2 2 -14 73 -26 158 -20 142 -21 182
-16 470 3 173 9 326 14 339 9 22 11 19 32 -37 13 -34 30 -67 39 -74 13 -11 15
-10 9 4 -10 28 -20 136 -14 153 10 24 16 19 41 -37z m-181 -691 c-8 -54 -22
-101 -49 -157 -49 -100 -56 -86 -38 75 24 218 13 233 -30 40 -15 -66 -31 -133
-36 -150 -4 -16 -11 -43 -15 -59 l-6 -29 -15 28 c-8 15 -14 38 -14 51 0 28
-17 41 -23 17 -4 -14 -5 -12 -6 5 0 12 3 30 8 40 13 24 163 393 192 472 l24
65 9 -160 c6 -104 5 -187 -1 -238z m1081 130 c4 4 6 1 5 -7 -2 -8 5 -27 15
-42 10 -15 15 -32 12 -37 -4 -5 -2 -13 4 -16 6 -4 9 -1 8 7 -2 7 3 12 10 11 6
-2 12 3 12 10 0 9 2 9 8 0 4 -6 16 -13 27 -15 15 -2 19 2 18 17 -1 11 0 15 3
8 3 -7 11 -10 18 -7 15 6 38 -40 30 -61 -4 -8 -9 -15 -13 -15 -4 0 -8 -6 -8
-12 0 -7 -10 -32 -21 -56 l-19 -43 -7 27 c-4 15 -16 40 -26 55 -11 14 -17 29
-14 31 3 3 7 18 10 33 4 25 3 27 -11 15 -17 -14 -21 -35 -3 -24 7 5 8 3 3 -5
-4 -7 -11 -9 -16 -4 -17 17 -87 152 -81 158 3 3 11 -4 17 -15 6 -11 15 -17 19
-13z m1224 -227 l3 -103 -23 7 c-13 3 -51 6 -86 6 -58 0 -63 2 -72 25 -27 71
-28 69 67 123 48 27 93 49 98 48 6 -2 11 -48 13 -106z m-3129 -277 c2 -1 -11
-68 -29 -148 -17 -81 -30 -155 -27 -166 3 -10 2 -17 -3 -14 -13 8 -21 -58 -10
-95 7 -23 6 -46 -2 -74 l-11 -41 -9 35 c-6 19 -16 121 -23 225 -12 168 -25
273 -41 327 -4 14 8 12 73 -15 43 -17 80 -32 82 -34z m1334 -211 c-22 -320
-61 -624 -113 -882 -61 -304 -262 -1066 -287 -1090 -3 -3 -3 4 0 15 3 11 13
46 22 78 19 67 15 99 -5 38 -12 -38 -30 -56 -30 -30 0 5 -4 7 -10 4 -5 -3 -10
-4 -10 -1 0 28 161 628 180 671 4 11 11 33 15 48 4 20 10 27 20 23 8 -3 15 -1
15 3 0 5 -6 11 -12 14 -10 3 -9 8 2 22 9 11 10 16 3 11 -18 -10 -17 -6 22 70
44 87 45 110 2 64 -81 -86 -304 -250 -317 -231 -7 11 -38 20 -81 23 -28 1 -36
6 -32 17 3 12 1 11 -10 -2 -9 -10 -18 -14 -21 -8 -3 5 0 11 6 14 7 2 10 8 6
12 -4 4 -14 2 -22 -4 -8 -7 -17 -8 -20 -3 -3 5 37 30 88 55 97 47 112 59 100
78 -4 8 -10 6 -17 -7 -9 -15 -12 -11 -23 27 -8 24 -14 56 -14 72 0 47 -19 29
-30 -31 -14 -67 -24 -83 -68 -106 -32 -16 -61 -14 -34 3 19 11 0 359 -23 424
-10 28 -14 58 -10 74 8 33 252 276 267 267 6 -4 8 -3 5 3 -4 5 8 23 25 39 l31
29 -7 -108 c-4 -59 -9 -122 -13 -140 -4 -23 -3 -29 6 -22 6 6 26 67 45 135 19
69 43 147 53 173 18 45 80 136 94 137 3 0 9 -46 13 -101 6 -84 4 -104 -8 -118
-9 -10 -16 -25 -16 -35 0 -9 -13 -83 -29 -164 -16 -81 -35 -183 -41 -227 -6
-44 -16 -96 -21 -116 -11 -42 -12 -105 -2 -96 10 11 50 138 89 286 19 73 41
145 48 160 28 54 91 363 112 551 3 33 13 68 21 77 13 17 14 16 8 -4 -4 -13 -2
-23 4 -23 6 0 14 12 18 28 15 61 18 -22 6 -196z m482 73 c-8 -48 -66 -205 -77
-205 -4 0 -8 9 -8 19 0 10 -13 51 -29 90 -22 53 -25 71 -15 71 8 0 14 5 14 10
0 16 32 11 45 -7 12 -16 13 -15 8 9 -3 15 2 36 12 51 14 23 19 24 36 14 16
-10 19 -19 14 -52z m-2220 -102 c-46 -73 -78 -101 -191 -169 -142 -83 -327
-158 -506 -204 -79 -21 -126 -26 -73 -8 17 5 39 13 50 18 11 5 37 11 58 15 20
3 37 10 37 14 0 5 10 11 22 14 30 8 17 18 -29 22 -44 4 -83 15 -83 24 0 3 20
18 44 34 24 15 63 44 87 65 65 55 103 74 118 59 10 -9 12 -8 9 7 -2 11 5 23
17 29 11 6 33 20 48 30 28 19 29 19 18 -1 -18 -34 -78 -101 -85 -95 -3 4 -6
-1 -6 -10 0 -10 7 -17 15 -17 8 0 15 4 15 10 0 5 17 21 38 34 20 14 51 35 67
48 l30 22 -20 -24 c-10 -14 -51 -58 -89 -97 -39 -40 -67 -73 -62 -73 21 0 315
181 426 262 36 26 69 47 73 48 4 0 -9 -26 -28 -57z m679 -23 c20 -7 26 -17 26
-39 0 -32 -5 -34 -132 -47 l-68 -6 0 45 c0 35 4 47 18 50 33 9 131 7 156 -3z
m-670 -22 c-3 -13 -14 -32 -23 -42 -9 -11 -10 -16 -3 -12 13 8 16 -11 6 -38
-5 -12 -10 -14 -19 -6 -10 9 -12 7 -9 -7 6 -22 -46 -104 -140 -223 -96 -121
-386 -421 -398 -414 -6 4 -8 2 -4 -4 3 -6 -21 -34 -55 -64 -34 -29 -89 -78
-122 -108 -82 -75 -189 -151 -205 -145 -7 3 -11 1 -8 -4 7 -11 -75 -61 -101
-62 -11 0 -13 -3 -5 -6 8 -3 -7 -16 -35 -31 -53 -28 -183 -83 -183 -77 0 2 53
34 118 71 64 37 137 80 161 97 25 17 50 30 57 30 7 0 12 3 11 7 -1 4 22 26 52
48 78 59 247 225 233 230 -11 3 -15 1 -65 -43 -15 -14 -33 -25 -40 -25 -7 0
-3 7 7 15 11 8 16 15 10 15 -14 -1 -44 -26 -38 -33 7 -7 -156 -114 -205 -134
-51 -22 -48 -9 8 33 28 21 51 42 51 46 0 11 3 12 -85 -32 -44 -22 -93 -40
-110 -40 -24 1 -15 7 50 36 44 20 85 40 90 46 15 15 -26 2 -115 -37 -41 -18
-122 -47 -180 -65 -58 -18 -115 -39 -127 -47 -13 -7 -23 -10 -23 -6 0 11 162
298 194 346 28 41 61 49 69 17 3 -12 0 -20 -7 -20 -12 0 -131 -229 -123 -236
2 -2 37 9 77 26 40 16 79 30 86 30 13 0 84 199 84 236 0 12 6 26 13 31 6 6
102 32 212 58 110 26 250 63 310 82 103 32 222 92 261 130 15 16 17 16 29 0
12 -16 13 -16 19 -1 4 9 4 19 1 22 -3 3 -5 0 -5 -7 0 -7 -5 -9 -12 -5 -13 8
17 34 35 30 7 -2 9 -1 5 1 -3 2 15 33 42 68 27 35 65 94 85 130 20 36 40 65
45 65 4 0 11 11 14 25 4 14 9 25 12 25 3 0 2 -10 -2 -22z m219 -175 c-9 -25
-51 -98 -91 -158 -33 -49 -54 -74 -37 -46 6 10 4 12 -4 7 -7 -5 -10 -15 -6
-24 3 -9 3 -13 -1 -9 -9 9 -44 -22 -44 -40 0 -7 -4 -13 -10 -13 -5 0 -10 -7
-10 -15 0 -8 -5 -15 -11 -15 -5 0 -8 -4 -5 -9 4 -5 3 -16 0 -25 -5 -14 -9 -14
-22 -4 -13 11 -15 10 -9 -5 4 -11 0 -27 -9 -40 -11 -15 -15 -17 -11 -5 4 10 2
20 -2 22 -5 3 -7 -5 -6 -17 1 -12 3 -28 4 -36 1 -9 10 -3 24 15 36 48 66 74
72 63 4 -5 15 1 25 13 11 13 19 19 19 13 1 -5 -24 -40 -54 -78 -63 -77 -72
-107 -17 -56 20 19 53 48 72 64 34 29 34 29 -5 -15 -22 -24 -96 -103 -165
-175 -133 -138 -177 -191 -278 -338 -66 -96 -176 -304 -211 -398 -29 -77 -68
-247 -86 -369 -26 -182 -17 -502 20 -714 10 -55 11 -85 4 -98 -7 -13 -7 -29
-1 -48 6 -16 8 -31 4 -35 -20 -19 -109 412 -122 594 -11 140 -1 347 20 436 5
22 9 47 9 55 -1 8 -11 -27 -24 -78 -23 -91 -35 -122 -35 -89 0 8 -3 23 -7 33
-5 13 -3 15 7 9 10 -6 12 -4 7 9 -4 9 -3 24 2 34 12 23 33 124 27 130 -3 2 -8
-9 -12 -24 -29 -127 -89 -262 -126 -286 -48 -31 -64 -31 -78 2 -10 24 -15 28
-22 18 -7 -9 -8 -6 -5 10 3 13 -1 39 -9 59 -23 53 -44 188 -44 275 0 74 18
191 40 253 9 27 9 26 3 -10 -9 -52 -6 -97 6 -104 5 -4 12 -70 15 -147 5 -134
22 -223 56 -283 9 -18 63 85 103 196 15 40 38 95 52 122 32 64 34 99 2 56 -12
-16 -40 -50 -63 -75 -23 -25 -51 -56 -62 -69 l-19 -25 -13 53 c-27 113 11 310
92 480 37 77 54 99 172 216 140 139 651 587 607 532 -7 -9 -10 -17 -5 -17 4 0
-1 -7 -12 -15 -13 -10 -14 -14 -5 -15 10 0 11 -3 2 -14 -9 -11 -9 -15 0 -18
11 -4 -50 -164 -74 -196 -7 -9 -6 -11 6 -6 9 3 28 31 42 62 33 72 75 133 86
126 5 -3 9 1 9 9 0 8 28 47 63 88 34 41 84 107 111 147 51 75 60 84 49 55z
m611 -224 c14 -11 24 -24 21 -28 -2 -5 5 -17 17 -27 12 -11 18 -13 14 -6 -14
24 15 11 54 -24 40 -36 50 -59 29 -66 -15 -5 0 -58 16 -58 7 0 16 6 18 13 3 6
6 2 6 -10 1 -20 -4 -23 -33 -23 -29 0 -39 7 -70 49 -20 27 -51 60 -70 75 l-35
26 -6 -37 c-12 -72 -26 -102 -61 -128 -47 -36 -96 -55 -143 -55 -40 0 -40 0
-48 48 -4 26 -7 78 -8 116 l0 69 85 21 c47 12 103 32 125 43 50 28 56 28 89 2z
m-54 -267 c0 -11 8 -43 18 -73 46 -134 35 -144 -35 -32 -62 100 -72 72 -15
-39 36 -69 39 -78 22 -78 -10 0 -26 7 -35 17 -25 24 -95 121 -95 130 1 8 118
89 133 92 4 0 7 -7 7 -17z m2611 -186 c180 -30 341 -93 479 -186 85 -58 221
-198 285 -294 57 -86 109 -189 103 -206 -2 -5 -23 19 -48 53 -25 34 -96 121
-157 193 -176 205 -299 284 -608 391 -188 65 -196 72 -54 49z m-3065 -13 c-3
-10 1 -61 7 -113 l13 -95 48 3 c65 4 97 -4 90 -23 -4 -8 -14 -15 -25 -15 -10
0 -48 -11 -84 -24 -36 -13 -65 -23 -66 -22 0 0 -3 48 -6 106 -3 58 -9 111 -13
119 -5 9 -1 29 8 48 16 34 37 46 28 16z m-66 -209 c0 -115 1 -125 18 -120 27
7 162 19 162 13 0 -9 -83 -46 -92 -41 -4 3 -8 0 -8 -5 0 -6 -18 -11 -40 -11
-27 0 -47 -7 -60 -20 -35 -35 -26 -43 43 -37 48 5 56 3 37 -4 -14 -6 -35 -12
-47 -13 -12 -2 -33 -11 -47 -20 -36 -23 -47 -21 -36 7 5 12 13 93 19 180 6 87
16 167 21 178 23 42 30 16 30 -107z m2787 3 c30 -17 203 -231 203 -252 0 -3
-11 7 -25 22 l-25 28 14 -35 c7 -19 11 -41 9 -47 -6 -18 -32 -16 -39 2 -12 29
-19 14 -16 -30 5 -53 -6 -57 -42 -15 l-25 30 5 -52 c5 -51 5 -52 -10 -28 -8
14 -16 36 -16 50 0 14 -9 59 -20 100 -11 41 -20 88 -20 104 0 29 1 28 35 -20
19 -27 35 -46 35 -43 0 3 -22 46 -50 95 -62 110 -63 119 -13 91z m423 -108
c14 -11 18 -17 10 -13 -9 4 -12 3 -7 -2 5 -5 16 -9 25 -9 9 0 16 -6 14 -13 -1
-8 2 -11 8 -7 19 12 160 -106 361 -301 155 -149 231 -240 350 -416 l98 -146
-12 -86 -12 -86 -48 113 c-132 318 -418 663 -739 896 -49 35 -88 68 -88 74 0
6 -3 8 -6 4 -8 -7 -74 41 -74 54 0 11 85 -33 120 -62z m-1487 -223 c-3 -31 -3
-31 9 4 7 23 13 29 15 18 2 -9 -1 -26 -6 -37 -14 -26 -14 -78 0 -87 9 -5 10 4
5 32 -6 37 -5 38 9 19 8 -11 13 -26 9 -35 -4 -8 -9 -26 -11 -40 -4 -20 -2 -22
6 -10 6 8 11 24 12 35 l0 20 9 -20 c8 -18 9 -18 9 -2 1 10 -6 29 -15 43 -9 13
-14 27 -11 30 9 9 68 -116 61 -128 -4 -7 -3 -8 4 -4 7 4 18 -7 28 -26 33 -63
112 -174 147 -205 64 -56 339 -181 635 -289 80 -29 185 -72 462 -190 30 -12
57 -20 60 -17 3 3 -1 8 -8 11 -40 13 -124 114 -109 128 3 3 28 -21 57 -53 29
-32 51 -53 48 -48 -47 119 -237 425 -297 479 -12 11 -21 25 -21 33 0 8 -4 11
-10 8 -5 -3 -10 -4 -10 -1 0 18 23 12 46 -11 15 -16 22 -21 16 -12 -10 13 -9
19 3 29 14 11 17 10 22 -8 3 -12 9 -22 14 -22 5 0 5 -7 2 -17 -4 -10 -2 -14 4
-10 7 4 32 -22 60 -60 76 -106 120 -182 238 -411 20 -39 41 -75 46 -78 26 -16
0 -24 -80 -24 l-89 0 -168 81 c-93 44 -227 103 -299 130 -173 66 -356 145
-351 150 2 2 -6 5 -19 5 -32 2 -146 55 -139 65 3 5 -3 6 -12 2 -13 -5 -15 -3
-9 7 5 9 4 11 -3 6 -37 -23 -165 96 -241 224 -79 134 -81 136 -76 68 3 -31 1
-59 -3 -62 -4 -2 -8 14 -9 35 -1 22 -6 46 -11 52 -12 15 -37 117 -33 136 1 8
-2 17 -7 20 -19 12 -18 68 1 68 9 0 12 -11 10 -31z m-798 -139 c29 -50 31 -69
11 -86 -12 -10 -19 -6 -37 19 -22 29 -24 30 -31 10 -4 -11 -16 -23 -25 -27
-10 -3 -33 -20 -50 -36 l-33 -31 20 -21 c24 -26 19 -47 -17 -70 -22 -15 -26
-15 -42 -1 -10 9 -20 16 -24 16 -3 0 -52 -47 -108 -105 -56 -58 -106 -105
-110 -105 -9 0 5 52 28 100 16 35 45 65 209 216 68 63 96 83 110 78 14 -4 15
-3 6 4 -11 7 -7 17 18 46 18 20 36 36 41 36 4 0 20 -20 34 -43z m1136 -43 c46
-14 114 -36 150 -49 67 -24 273 -84 362 -106 26 -6 50 -15 53 -20 3 -5 -30
-31 -72 -58 -73 -46 -75 -49 -48 -53 16 -3 82 -20 146 -37 64 -17 119 -31 122
-31 3 0 3 42 0 93 l-5 92 20 -35 c16 -30 51 -165 51 -198 0 -5 -53 4 -117 20
-198 48 -354 94 -353 104 0 5 35 27 77 48 43 22 73 41 68 42 -44 11 -258 82
-334 110 -51 19 -96 32 -99 29 -4 -4 24 -36 62 -72 68 -66 76 -91 23 -78 -37
10 -206 187 -207 218 0 11 10 9 101 -19z m-251 -1149 c0 -3 -6 -16 -14 -28
-22 -33 -76 -201 -76 -234 0 -23 15 -45 64 -97 36 -37 71 -66 78 -65 7 1 32 1
56 0 l43 -1 -19 -27 c-24 -36 -42 -100 -42 -150 0 -38 1 -39 29 -35 28 4 29 2
33 -45 3 -26 6 -146 7 -266 l2 -219 -31 -34 c-35 -41 -37 -54 -11 -103 10 -20
24 -61 31 -91 10 -47 10 -61 -3 -92 -19 -46 -17 -46 -322 -52 -163 -2 -252 0
-277 7 l-38 12 0 100 c1 72 5 105 15 119 21 28 19 55 -10 101 -23 38 -24 47
-25 216 0 97 3 217 6 267 l7 91 28 -6 c27 -5 29 -4 29 28 0 32 -22 114 -41
151 -13 26 -13 27 51 34 59 6 62 9 115 68 l54 62 -9 60 c-8 57 -13 78 -30 119
-21 51 -40 105 -36 105 1 0 18 -8 37 -17 51 -27 180 -24 239 4 48 23 60 26 60
18z"/>
<path d="M6861 6900 c-23 -34 -40 -64 -37 -68 3 -5 0 -14 -6 -22 -8 -12 -9
-12 -4 3 8 26 -2 20 -18 -11 -8 -15 -12 -39 -9 -53 3 -17 -1 -30 -14 -40 -16
-13 -17 -12 -5 3 8 9 12 25 10 35 -2 12 -17 -4 -45 -50 -36 -57 -39 -67 -24
-67 10 0 24 -7 31 -15 9 -11 34 -15 97 -15 l84 0 -7 123 c-4 67 -8 148 -8 179
-1 32 -2 58 -3 58 -1 0 -20 -27 -42 -60z"/>
<path d="M6526 6380 c-15 -23 -24 -46 -20 -52 4 -7 3 -8 -4 -4 -7 4 -12 1 -12
-7 0 -8 -7 -17 -15 -21 -8 -3 -15 -15 -15 -26 0 -11 -4 -20 -9 -20 -5 0 -32
-37 -61 -82 -29 -46 -61 -95 -71 -110 -10 -15 -19 -30 -19 -33 0 -7 539 -6
567 1 17 5 27 23 45 80 14 46 28 74 37 74 11 0 13 16 7 91 -4 50 -9 104 -13
120 l-5 29 -193 0 -192 0 -27 -40z"/>
<path d="M3839 5863 c-20 -21 -80 -81 -133 -133 -54 -52 -124 -127 -156 -167
-32 -39 -61 -69 -66 -65 -4 4 -4 1 0 -6 10 -18 -167 -192 -234 -230 l-54 -31
47 -21 c38 -17 328 -110 343 -110 1 0 3 53 3 118 -1 224 69 416 215 585 69 79
82 97 73 97 -1 0 -19 -17 -38 -37z"/>
<path d="M2450 3990 c-41 -21 -104 -46 -139 -56 -63 -17 -64 -19 -87 -71 -13
-30 -24 -58 -24 -64 0 -15 176 105 320 218 25 20 9 14 -70 -27z"/>
<path d="M2146 3901 c-3 -4 -33 -14 -66 -20 l-60 -12 -25 -82 c-14 -46 -25
-86 -25 -90 0 -4 29 7 64 25 63 31 65 33 99 110 20 43 32 78 27 78 -5 0 -11
-4 -14 -9z"/>
<path d="M7979 8023 c16 -31 14 -40 -3 -17 -14 18 -16 18 -47 -12 -33 -33 -33
-68 -1 -42 15 12 16 11 3 -5 -10 -13 -17 -14 -26 -7 -10 8 -25 -2 -62 -40 -26
-29 -49 -55 -51 -59 -1 -4 37 -7 85 -7 145 1 110 -18 -44 -25 -158 -6 -266
-29 -322 -68 -65 -44 -112 -91 -105 -103 4 -6 3 -8 -3 -5 -18 11 -75 -61 -68
-86 5 -17 4 -18 -4 -8 -7 12 -15 2 -36 -43 -70 -154 -99 -294 -100 -486 0
-136 21 -360 35 -360 4 0 5 -11 2 -25 l-4 -25 711 0 c637 0 711 2 711 16 0 8
-5 12 -10 9 -6 -4 -10 5 -9 22 2 15 -1 37 -4 49 -5 14 -3 21 7 21 10 0 13 -11
10 -39 -2 -21 1 -38 6 -38 6 0 10 -9 10 -21 0 -11 4 -17 10 -14 14 9 -18 152
-59 260 -10 28 -36 96 -56 153 -26 71 -41 99 -47 90 -5 -8 -7 -4 -3 12 4 19
-21 80 -104 248 -61 122 -113 222 -116 222 -4 0 -3 -5 1 -12 4 -7 3 -8 -4 -4
-6 4 -9 12 -6 19 6 15 -103 183 -117 179 -6 -1 -8 2 -4 8 7 11 -32 72 -113
175 -66 84 -78 97 -63 68z"/>
<path d="M7109 7796 c-2 -2 -146 -11 -319 -21 -173 -10 -316 -18 -317 -19 -1
-1 9 -47 23 -101 21 -80 27 -135 32 -280 5 -123 10 -170 15 -148 10 39 33 35
42 -8 5 -23 14 -31 48 -40 23 -6 58 -15 77 -20 28 -7 37 -6 48 8 11 16 12 16
12 -1 0 -30 16 -9 83 111 89 159 157 304 150 317 -3 6 -2 8 2 3 5 -4 26 23 47
60 22 37 53 84 70 105 26 34 27 38 11 38 -11 0 -22 -2 -24 -4z"/>
<path d="M880 6416 c0 -2 -11 -76 -25 -163 -13 -87 -24 -175 -23 -196 l1 -37
1149 0 c759 0 1148 3 1148 10 0 6 -4 10 -9 10 -10 0 -7 32 4 50 4 6 -14 47
-38 93 -24 45 -57 117 -72 160 l-28 77 -1053 0 c-580 0 -1054 -2 -1054 -4z"/>
<path d="M6110 6350 c41 -38 77 -64 79 -58 2 6 -3 15 -10 20 -10 7 -11 11 -2
14 8 4 9 13 3 28 -5 15 -5 27 3 35 13 13 30 15 22 1 -6 -9 33 -60 46 -60 6 0
45 56 57 83 2 4 -59 7 -135 7 l-138 0 75 -70z"/>
<path d="M7260 6398 c0 -12 12 -96 26 -186 l27 -163 26 5 26 6 -24 -13 c-20
-12 -21 -15 -6 -20 23 -10 1443 -9 1448 1 6 10 -9 127 -34 270 l-22 122 -734
0 -733 -1 0 -21z"/>
<path d="M7196 5714 c-3 -9 -3 -21 1 -26 3 -6 1 -8 -4 -5 -14 9 -92 -95 -100
-133 l-6 -31 232 1 c127 1 231 4 231 8 0 4 -5 14 -11 22 -9 13 -10 12 -5 -3 3
-11 2 -16 -4 -12 -6 3 -10 12 -10 19 0 23 -269 176 -309 176 -5 0 -12 -7 -15
-16z"/>
<path d="M811 5615 l2 -95 1068 0 c953 0 1108 3 1060 22 -4 2 0 11 10 22 17
18 18 18 16 -2 0 -11 -5 -18 -11 -15 -5 3 -6 1 -2 -5 9 -16 46 3 46 23 0 7 6
15 14 17 7 2 44 31 80 66 l67 62 -1176 0 -1176 0 2 -95z"/>
<path d="M7510 5699 c0 -5 4 -8 9 -5 5 4 20 2 33 -3 22 -9 11 -16 -19 -12 -7
1 -13 -5 -13 -14 0 -11 7 -14 25 -11 17 3 25 0 25 -9 0 -8 6 -12 14 -9 13 5
13 2 3 -19 -7 -14 -17 -23 -25 -19 -11 4 -11 6 -1 12 9 6 9 12 -4 24 -10 10
-18 12 -22 6 -3 -5 -1 -10 5 -10 6 0 8 -4 5 -10 -3 -5 1 -20 10 -33 8 -13 12
-27 8 -30 -3 -4 -1 -7 5 -7 6 0 9 -7 6 -15 -5 -13 66 -15 609 -15 551 0 615 2
621 16 8 22 8 26 -3 20 -5 -4 -7 2 -5 11 2 10 5 46 7 81 l4 62 -648 0 c-450 0
-649 -3 -649 -11z"/>
<path d="M814 5163 c9 -90 35 -253 42 -264 3 -5 451 -9 1004 -9 907 0 1000 1
1015 16 23 23 16 37 -35 76 -60 45 -112 116 -137 186 l-20 57 -938 3 -937 2 6
-67z"/>
<path d="M6975 5178 c-8 -28 -14 -52 -12 -54 1 -1 27 2 57 7 35 6 115 5 219
-2 242 -17 393 5 561 80 l45 20 -427 0 -427 1 -16 -52z"/>
<path d="M7870 5190 c-105 -93 -302 -207 -450 -261 l-65 -24 95 -6 c52 -4 366
-7 696 -8 470 -1 604 2 611 12 6 6 18 73 27 147 9 74 18 145 20 158 l3 22
-446 0 -446 -1 -45 -39z"/>
<path d="M870 4808 c1 -14 15 -82 31 -140 l10 -38 750 0 750 0 127 71 c69 39
151 81 182 94 l55 24 -952 1 c-756 0 -953 -3 -953 -12z"/>
<path d="M7587 4801 c51 -24 142 -81 209 -132 l51 -39 426 0 c397 0 426 1 431
18 9 29 36 153 36 163 0 5 -232 9 -597 9 -594 0 -598 -1 -556 -19z"/>
<path d="M940 4531 c0 -78 131 -431 228 -615 l47 -90 125 1 125 1 25 30 c246
288 333 374 515 512 50 38 128 91 175 119 47 28 92 55 100 60 10 6 -227 10
-662 10 l-678 1 0 -29z"/>
<path d="M7980 4553 c0 -5 28 -30 61 -58 91 -75 186 -191 234 -285 l18 -35
-24 21 c-27 25 -89 58 -95 51 -2 -2 11 -30 31 -62 55 -92 61 -93 -115 8 -220
127 -408 208 -595 256 -74 20 -302 47 -311 38 -3 -2 29 -16 69 -31 102 -37
209 -103 292 -179 39 -36 68 -67 65 -69 -3 -3 -39 -1 -80 3 -41 4 -124 8 -185
8 l-110 -1 75 -19 c41 -11 138 -33 215 -50 207 -45 263 -63 405 -132 73 -35
172 -103 215 -146 l39 -41 107 0 107 0 40 78 c93 179 199 459 236 625 l6 27
-350 0 c-192 0 -350 -3 -350 -7z"/>
<path d="M6317 4320 c68 -107 277 -353 399 -470 98 -93 257 -220 277 -220 6 0
4 5 -5 11 -10 5 -18 15 -18 22 0 7 4 6 10 -3 5 -8 11 -12 15 -9 3 3 -5 14 -17
25 -12 10 -18 13 -14 7 16 -28 -14 -10 -82 49 -55 49 -68 65 -60 76 8 9 8 16
1 23 -8 8 -13 7 -18 -2 -5 -8 -4 -10 3 -5 7 4 12 3 12 -3 0 -29 -26 -12 -105
70 -77 80 -85 92 -73 107 11 15 11 16 -3 4 -14 -10 -29 1 -108 82 -51 52 -100
105 -109 117 -9 13 -21 27 -26 32 -8 5 -7 10 3 16 9 6 10 11 2 15 -6 4 -11 1
-11 -6 0 -7 -19 7 -42 32 -22 25 -36 38 -31 30z"/>
</g>
</svg>
